<?xml version="1.0" encoding="UTF-8" standalone="no"?>
<!DOCTYPE svg PUBLIC "-//W3C//DTD SVG 1.1//EN" "http://www.w3.org/Graphics/SVG/1.1/DTD/svg11.dtd">
<svg width="100%" height="100%" viewBox="0 0 1657 399" version="1.1" xmlns="http://www.w3.org/2000/svg" xmlns:xlink="http://www.w3.org/1999/xlink" xml:space="preserve" xmlns:serif="http://www.serif.com/" style="fill-rule:evenodd;clip-rule:evenodd;stroke-linejoin:round;stroke-miterlimit:2;">
    <g id="ArtBoard1" transform="matrix(1,0,0,1,-180.604,-123.321)">
        <rect x="180.604" y="123.321" width="1656.73" height="398.112" style="fill:none;"/>
        <clipPath id="_clip1">
            <rect x="180.604" y="123.321" width="1656.73" height="398.112"/>
        </clipPath>
        <g clip-path="url(#_clip1)">
            <g transform="matrix(0.818282,0,0,0.818282,-284.818,-690.311)">
                <path d="M1318.41,999.082C1451.48,999.082 1559.51,1107.1 1559.51,1240.16C1559.51,1373.21 1451.48,1481.23 1318.41,1481.23C1185.34,1481.23 1077.3,1373.21 1077.3,1240.16C1077.3,1175.94 1077.76,999.082 1077.76,999.082L1318.41,999.082ZM1318.41,1098.54C1396.58,1098.54 1460.04,1162 1460.04,1240.16C1460.04,1318.32 1396.58,1381.78 1318.41,1381.78C1240.24,1381.78 1176.77,1318.32 1176.77,1240.16C1176.77,1202.43 1177.04,1098.54 1177.04,1098.54L1318.41,1098.54Z"/>
                <g transform="matrix(0.868574,0,0,0.868459,1458.88,655.801)">
                    <path d="M917.243,411.884L1051.73,410.658L1051.73,936.163C1051.73,936.163 883.874,937.143 818.508,937.143C689.787,937.143 585.283,832.638 585.283,703.918L585.283,408.588L716.986,410.441L718.068,725.141C718.432,773.362 751.802,812.994 807.177,814.217L917.146,815L917.243,411.884Z"/>
                </g>
                <g transform="matrix(0.311529,0,0,0.311488,2266.52,1177.76)">
                    <circle cx="818.508" cy="703.918" r="233.225"/>
                </g>
                <path d="M1042.57,1306.17C1013.83,1407.17 920.808,1481.23 810.626,1481.23C677.555,1481.23 569.518,1373.21 569.518,1240.16C569.518,1107.1 677.555,999.082 810.626,999.082C920.808,999.082 1013.83,1073.14 1042.57,1174.14L923.074,1174.14C900.313,1136.02 858.454,1110.44 810.626,1110.44C738.53,1110.44 679.998,1168.56 679.998,1240.16C679.998,1311.75 738.53,1369.88 810.626,1369.88C858.454,1369.88 900.313,1344.3 923.074,1306.17L1042.57,1306.17Z"/>
                <g transform="matrix(1,0,0,1,0,536.516)">
                    <path d="M1798.65,607.324L1906.59,607.324C1907.25,512.975 1847.24,457.308 1753.94,458.206C1653.66,459.171 1590.55,513.66 1590.89,594.673C1591.12,650.076 1629.91,698.797 1675.44,716.096C1772.59,753.013 1797.2,764.835 1796.28,789.628C1795.23,818.025 1777.22,829.869 1746.73,829.527C1713.62,828.202 1691.67,806.612 1691.42,779.907L1582.49,780.391C1583.54,860.359 1645.91,933.161 1753.94,933.156C1851.52,933.151 1908.04,875.072 1908.3,794.639C1908.46,742.439 1891.51,690.029 1788.04,657.131C1737.29,640.994 1701.56,627.591 1702.91,597.247C1703.55,542.592 1798.54,544.801 1798.65,607.324Z"/>
                </g>
            </g>
        </g>
    </g>
</svg>
