<?xml version="1.0" encoding="UTF-8" standalone="no"?>
<!DOCTYPE svg PUBLIC "-//W3C//DTD SVG 1.1//EN" "http://www.w3.org/Graphics/SVG/1.1/DTD/svg11.dtd">
<svg width="100%" height="100%" viewBox="0 0 1534 564" version="1.1" xmlns="http://www.w3.org/2000/svg" xmlns:xlink="http://www.w3.org/1999/xlink" xml:space="preserve" style="fill-rule:evenodd;clip-rule:evenodd;stroke-linejoin:round;stroke-miterlimit:1.41421;">
    <g id="ArtBoard1" transform="matrix(0.923396,0,0,0.743161,-862.207,-630.489)">
        <g transform="matrix(14.1173,0,0,17.5411,-14338.4,-21003.1)">
            <path d="M1082.8,1266.99C1082.8,1276.79 1090.95,1284.74 1100.95,1284.79C1105.25,1284.79 1109.15,1283.29 1112.3,1280.94C1112.6,1280.69 1112.7,1280.29 1112.45,1280.04C1112.2,1279.74 1111.8,1279.74 1111.5,1279.94C1108.6,1282.19 1104.95,1283.49 1100.95,1283.49C1091.7,1283.49 1084.1,1276.14 1084.1,1266.99C1084.1,1257.94 1091.7,1250.59 1100.95,1250.59C1105,1250.59 1108.65,1251.89 1111.55,1254.14C1111.8,1254.39 1112.2,1254.34 1112.5,1254.04C1112.7,1253.79 1112.6,1253.39 1112.3,1253.14C1109.25,1250.79 1105.25,1249.29 1100.95,1249.29C1090.95,1249.29 1082.8,1257.29 1082.8,1266.99Z" style="fill-rule:nonzero;"/>
        </g>
        <g transform="matrix(14.1173,0,0,17.5411,-14468.3,-21003.1)">
            <path d="M1120.35,1267.34C1120.4,1277.39 1127.95,1285.44 1137.4,1285.44C1146.85,1285.44 1154.4,1277.39 1154.5,1267.34C1154.4,1257.34 1146.85,1249.29 1137.4,1249.29C1127.95,1249.29 1120.4,1257.34 1120.35,1267.34ZM1121.7,1267.34C1121.7,1258.04 1128.8,1250.59 1137.4,1250.59C1145.95,1250.59 1153.05,1258.04 1153.1,1267.34C1153.05,1276.59 1145.95,1283.99 1137.4,1284.09C1128.8,1283.99 1121.7,1276.59 1121.7,1267.34Z" style="fill-rule:nonzero;"/>
        </g>
        <g transform="matrix(14.1173,0,0,17.5411,-14599.8,-21003.1)">
            <path d="M1162.5,1279.69C1165.35,1281.99 1170.1,1284.74 1175.35,1284.74C1182.25,1284.74 1188.05,1280.64 1188.1,1275.24C1188.1,1272.54 1186.65,1270.44 1184.4,1268.94C1182.1,1267.44 1179.05,1266.49 1175.45,1265.79L1175.35,1265.79C1172.15,1265.19 1169.4,1264.29 1167.5,1262.99C1165.6,1261.69 1164.55,1260.14 1164.55,1258.09C1164.55,1256.04 1165.7,1254.14 1167.6,1252.74C1169.55,1251.34 1172.25,1250.44 1175.25,1250.44C1179.45,1250.44 1182.6,1252.49 1185.45,1254.34C1185.7,1254.49 1186.05,1254.44 1186.2,1254.19C1186.4,1253.89 1186.3,1253.54 1186.05,1253.39C1183.25,1251.54 1179.8,1249.29 1175.25,1249.29C1168.85,1249.29 1163.45,1253.09 1163.4,1258.09C1163.4,1260.59 1164.75,1262.54 1166.85,1263.94C1168.95,1265.34 1171.85,1266.29 1175.15,1266.89L1175.25,1266.94C1178.75,1267.54 1181.7,1268.49 1183.75,1269.89C1185.8,1271.29 1186.95,1272.99 1186.95,1275.24C1186.95,1277.49 1185.7,1279.54 1183.6,1281.09C1181.5,1282.64 1178.6,1283.59 1175.35,1283.59C1170.5,1283.59 1165.95,1280.99 1163.2,1278.79C1162.95,1278.59 1162.6,1278.64 1162.4,1278.84C1162.2,1279.09 1162.25,1279.49 1162.5,1279.69Z" style="fill-rule:nonzero;"/>
        </g>
        <g transform="matrix(14.1173,0,0,17.5411,-14719.1,-21003.1)">
            <path d="M1197.55,1270.74C1197.55,1278.54 1203.8,1284.79 1211.55,1284.79C1219.25,1284.79 1225.6,1278.54 1225.6,1270.74L1225.6,1250.44C1225.6,1250.09 1225.25,1249.79 1224.95,1249.79C1224.6,1249.79 1224.3,1250.09 1224.3,1250.44L1224.3,1270.74C1224.25,1277.84 1218.55,1283.44 1211.55,1283.54C1204.5,1283.44 1198.8,1277.84 1198.8,1270.74L1198.8,1250.44C1198.8,1250.09 1198.55,1249.79 1198.2,1249.79C1197.8,1249.79 1197.55,1250.09 1197.55,1250.44L1197.55,1270.74Z" style="fill-rule:nonzero;"/>
        </g>
    </g>
</svg>
